<svg xml:space="preserve" style="enable-background:new 0 0 250 412;" viewBox="0 0 250 412" y="0px" x="0px" xmlns:xlink="http://www.w3.org/1999/xlink" xmlns="http://www.w3.org/2000/svg" id="レイヤー_1" version="1.1">
<g>
	<g>
		<path d="M237.6,111c-2.9-53.8-50-99.3-107-97.1C183.9,16,229.7,54.7,237.6,111z"></path>
		<path d="M237.7,112.9c2.6,68.6-55.7,118.2-116.5,112.1c-2.9-0.3-4.8-3.4-3.6-6.1c3.2-7.2,4.7-16.1,3.9-27.5
			c-3.7-31.4-43.8-45.3-38.4-82.7c-13.8,45.4,55.5,62.8,25.4,114.2c-0.2,0-0.3-0.1-0.5-0.1c-25.3-6-42.8-29.1-42.1-55.1
			c0.2-6.2,0.9-13.4,2.5-21.8c5.9-28.1,20.8-53.9,27.9-81.7c4-14.7,4.7-29.9,4.1-45c5.9-2,12.1-3.5,18.6-4.5
			C17,23.1-18.5,155.4,69.5,214.7C144.9,264,247.5,206.2,237.7,112.9z M56.4,193.6C7.6,143.5,21.3,62.5,79.3,28.6
			c6.6-3.8,14.8,0.9,14.8,8.5c0,42.7-13.5,61-26.9,100c-6,17.1-9.6,36.5-7,54.7C60.5,193.8,57.9,195.1,56.4,193.6z"></path>
		<path d="M90.1,126.8C90.7,80,125.7,70.6,121,19.4C120.5,66.2,85.5,75.6,90.1,126.8z"></path>
	</g>
	<g>
		<path d="M38.8,334.3c-2.7,2.2-3.1,5.1-1.8,7.6c1.5,2.8,6.8,5.7,10.8,6.7c1.6,0.5,3.9,0.4,3-1.3c-0.8-1.6-7.1-1.8-8-6.5
			c-0.8-4.5,7.1-7.2,9.5-8.8c1.7-1.1,3.6-2.5,2.8-4.1C53.8,325.4,43.5,329.6,38.8,334.3z"></path>
		<path d="M91.7,348.7c3.9,1.1,9.7-10.3,10.3-8.4c1,1,4.9,7.3,5.2,6.4C106.6,308.6,72,344.6,91.7,348.7z M90.8,344.4
			c-0.4-3.9,4.6-10.6,7.1-12.2C102.4,335.6,90.1,346.2,90.8,344.4z"></path>
		<path d="M15.1,398.2c4.4-1.4,3-8.9,4.2-11.6c-5.7-21.7,28.6-75.5,41.3-106.2C60.8,262.8-3.9,396,15.1,398.2z"></path>
		<path d="M202.8,328.3c2.2,4.7-15.9,16.2-0.9,20.5C216.5,346.7,223.9,331.5,202.8,328.3z M202.1,345.3c-5.1,1.9,5-11.8,5-11.8
			S218.6,339.8,202.1,345.3z"></path>
		<path d="M160.5,294.6c-3.5,3.1-40.9,90.7-29.7,87.6c3.7-0.4,2.5-4.8,3.2-6.1C132.4,359.5,167.9,292.7,160.5,294.6z"></path>
		<path d="M159.5,329c-5.2,1.8-11.2,6.1-10.1,11.9c1.2,3.7,5.5,7.2,9,7.8c4.1,0.5,1.9-1.2,0.2-2.4c-2.8-1.4-6-4.5-3.8-7.7
			c2.5-4.2,10.4-3.6,10.8-8.4C165.2,327.3,161.4,328.4,159.5,329z"></path>
	</g>
</g>
</svg>
