<svg xml:space="preserve" style="enable-background:new 0 0 250 250;" viewBox="0 0 250 250" y="0px" x="0px" xmlns:xlink="http://www.w3.org/1999/xlink" xmlns="http://www.w3.org/2000/svg" id="レイヤー_1" version="1.1">
<g>
	<path d="M233.6,112.7c-2.9-53.8-50-99.3-107-97.1C179.9,17.8,225.7,56.4,233.6,112.7z"></path>
	<path d="M233.8,114.6c2.6,68.6-55.7,118.2-116.5,112.1c-2.9-0.3-4.8-3.4-3.6-6.1c3.2-7.2,4.7-16.1,3.9-27.5
		c-3.7-31.4-43.8-45.3-38.4-82.7c-13.8,45.4,55.5,62.8,25.4,114.2c-0.2,0-0.3-0.1-0.5-0.1c-25.3-6-42.8-29.1-42.1-55.1
		c0.2-6.2,0.9-13.4,2.5-21.8c5.9-28.1,20.8-53.9,27.9-81.7c4-14.7,4.7-29.9,4.1-45c5.9-2,12.1-3.5,18.6-4.5
		c-102,8.6-137.5,140.9-49.5,200.2C140.9,265.7,243.5,207.9,233.8,114.6z M52.5,195.3C3.6,145.2,17.3,64.2,75.3,30.3
		c6.6-3.8,14.8,0.9,14.8,8.5c0,42.7-13.5,61-26.9,100c-6,17.1-9.6,36.5-7,54.7C56.5,195.6,54,196.8,52.5,195.3z"></path>
	<path d="M86.2,128.5c0.6-46.7,35.6-56.1,30.9-107.3C116.5,67.9,81.6,77.3,86.2,128.5z"></path>
</g>
</svg>
